<svg id="Layer_1" data-name="Layer 1" xmlns="http://www.w3.org/2000/svg" viewBox="0 0 500 97.08" height="97.08" width="500"><defs><style>.cls-1{fill:#231f20;}</style></defs><title>Black-Horizontal-LPL-Logo</title><path class="cls-1" d="M60.2,61.16V87.57A1.38,1.38,0,0,1,58.82,89H45.15v1.54a1.35,1.35,0,0,1-.53,1.08s-4.43,3.64-13.55,3.64h-.85a1.39,1.39,0,0,1,0-2.77c6.72.18,10.75-1.81,12.19-2.68V87.57a1.38,1.38,0,0,1,1.38-1.39H57.44V61.8l-7.89-6.53v15.6a1.33,1.33,0,0,1-.47,1,1.38,1.38,0,0,1-1.06.33c-2.12-.34-5.62-2.43-5.62-8.14V47.57C42.4,18.37,32.34,4.88,30,2.89c-2.4,2-12.59,15.41-12.59,44.63v4.1a1.35,1.35,0,0,1-.43,1L2.77,66.28V80.5L16,82.18l.21,0,.13.06.11,0H17v.44a.72.72,0,0,1,.12.21l.11.29a2.53,2.53,0,0,1,0,.3V94.28l1.19,0,6.59-5V61.42l-.36-.1L19.47,74.14a1.41,1.41,0,0,1-1.81.76,1.35,1.35,0,0,1-.75-.75,1.36,1.36,0,0,1,0-1.05l5.64-14a1.39,1.39,0,0,1,1.64-.82l2.58.73a1.39,1.39,0,0,1,1,1.33V90a1.37,1.37,0,0,1-.54,1.1l-7.5,5.64a1.29,1.29,0,0,1-.81.28l-3,.08a1.45,1.45,0,0,1-1-.38,1.44,1.44,0,0,1-.43-1v-11L1.21,83.07A1.37,1.37,0,0,1,0,81.71v-16a1.36,1.36,0,0,1,.41-1L14.62,51v-3.5c0-.57,0-1.13,0-1.7s0-1.1,0-1.66,0-1.08.05-1.62,0-1.06.08-1.6,0-1,.09-1.55.07-1,.11-1.53.09-1,.13-1.49l.15-1.46c.05-.48.11-.95.17-1.43s.11-.93.18-1.39.13-.91.2-1.36.13-.89.21-1.33.14-.87.22-1.3l.24-1.27c.08-.41.17-.82.25-1.23L17,24.4l.27-1.17c.1-.38.19-.76.29-1.14s.19-.74.3-1.11.2-.72.3-1.08.21-.7.31-1l.33-1c.1-.33.21-.66.32-1l.34-1c.11-.31.22-.62.34-.93s.23-.59.35-.89.23-.58.35-.87.23-.56.35-.84l.36-.81.36-.78L22,10l.36-.72.36-.7L23,7.94c.12-.22.24-.43.37-.64s.23-.41.35-.61l.36-.59.35-.55L24.81,5l.35-.5c.11-.16.22-.32.34-.47l.33-.45.33-.42.32-.39c.1-.13.2-.25.31-.37l.3-.34c.1-.11.19-.22.29-.32l.28-.29a3.45,3.45,0,0,1,.28-.26L28.2,1l.25-.22.23-.19L28.9.4l.21-.14A1.53,1.53,0,0,1,29.83,0a1.84,1.84,0,0,1,.77.13,2.91,2.91,0,0,1,.49.27l.06,0,.25.18.27.21.27.24.29.26.3.3.31.32.31.36.33.38.33.42c.12.14.23.29.34.44L34.5,4l.35.51c.12.17.24.35.35.53l.36.56c.13.2.25.4.37.6l.36.62.37.65.37.69.37.71c.12.25.24.5.37.75l.36.77c.13.27.25.54.37.81l.36.83q.2.44.36.87l.36.89c.12.31.24.62.35.93s.24.64.35,1l.34,1,.33,1c.12.35.22.7.33,1.05s.22.72.32,1.08.21.74.31,1.11l.3,1.15c.1.39.19.78.29,1.17s.19.8.28,1.21.18.82.26,1.23.18.85.26,1.27l.24,1.3c.08.44.15.89.23,1.33L44,31c.07.47.13.93.2,1.4l.18,1.42c.06.49.11,1,.16,1.46s.11,1,.15,1.49.09,1,.13,1.52.08,1,.11,1.55L45,41.38c0,.54,0,1.08.07,1.62s0,1.1,0,1.65l0,1.68V64.1c0,2.53.82,3.89,1.65,4.61V52.34a1.35,1.35,0,0,1,.82-1.25,1.32,1.32,0,0,1,1.43.18L59.7,60.1A1.31,1.31,0,0,1,60.2,61.16Z"/><polygon class="cls-1" points="81.39 87.78 81.39 43.07 88.89 43.07 88.89 80.67 105.49 80.67 105.49 87.78 81.39 87.78"/><path class="cls-1" d="M136.69,79c.19,2.27,1.09,2.85,3,3.3l-.45,6.2c-4.59,0-6.79-.84-8.73-2.26a23.94,23.94,0,0,1-9.43,2.26c-5.62,0-9.89-4.07-9.89-10.33,0-6.66,4.2-9.37,10.6-9.83l7.56-.64V65.62c0-2.71-1.29-4.07-3.75-4.07-5.81,0-12.53.65-12.53.65l-.26-6.08A111.53,111.53,0,0,1,126,54.77c6.91,0,10.73,3,10.73,10.92ZM122.6,73.57c-2.71.13-4,1.94-4,4.39s1.35,4.33,3.49,4.33A26.53,26.53,0,0,0,129.32,81V73.18Z"/><path class="cls-1" d="M173.12,55.54V87.78h-7.37V86.17s-4.78,2.32-8.14,2.32c-8.27,0-10.92-4.91-10.92-16.09V55.54h7.37v16.8c0,6.72.9,9.69,5,9.69,2.71,0,6.65-1.68,6.65-1.68V55.54Z"/><path class="cls-1" d="M183.31,87.78V55.54h7.37v1.62s4.71-2.39,8.27-2.39c8.46,0,11,5.94,11,16.15V87.78h-7.36V71c0-5.49-.78-9.49-5-9.49a23.24,23.24,0,0,0-6.85,1.61V87.78Z"/><path class="cls-1" d="M240.22,55.8,240,62.07s-4.71-.52-7.17-.52c-5.81,0-7.82,2.84-7.82,9.69,0,7.11,1.88,10.53,7.89,10.53,2.45,0,7.17-.45,7.17-.45l.19,6.27a66.29,66.29,0,0,1-9.62.9c-9.31,0-13.12-5.62-13.12-17.25,0-10.85,4.2-16.47,13.31-16.47a53.52,53.52,0,0,1,9.43,1"/><path class="cls-1" d="M247.71,87.78V42.17h7.36V56.58s4.85-1.81,8.27-1.81c8.47,0,11,5.94,11,16.08V87.78h-7.43V70.85c0-5.42-.71-9.36-5-9.36a28.87,28.87,0,0,0-6.85,1.29v25Z"/><path class="cls-1" d="M291.82,74.28v13.5h-7.56V43.07h15.58c9.62,0,15.18,5.17,15.18,15.19s-5.56,16-15.18,16Zm7.95-7c5.1,0,7.49-3.74,7.49-9s-2.39-8.21-7.49-8.21h-7.95V67.3Z"/><path class="cls-1" d="M346.21,79c.2,2.27,1.1,2.85,3,3.3l-.45,6.2c-4.59,0-6.78-.84-8.72-2.26a23.94,23.94,0,0,1-9.43,2.26c-5.62,0-9.89-4.07-9.89-10.33,0-6.66,4.2-9.37,10.6-9.83l7.56-.64V65.62c0-2.71-1.3-4.07-3.75-4.07-5.82,0-12.54.65-12.54.65l-.25-6.08a111.27,111.27,0,0,1,13.18-1.35c6.91,0,10.72,3,10.72,10.92Zm-14.08-5.42c-2.72.13-4,1.94-4,4.39s1.36,4.33,3.49,4.33A26.65,26.65,0,0,0,338.85,81V73.18Z"/><path class="cls-1" d="M381.67,87.78h-7.43V86.3a19.49,19.49,0,0,1-7.75,2.19c-8.85,0-12-6.52-12-17,0-11,4.65-16.67,13.18-16.67a39.85,39.85,0,0,1,6.59.84V42.17h7.43Zm-7.43-7.49V61.94a33.88,33.88,0,0,0-6.07-.71c-4.07,0-6.21,3.62-6.21,10.27,0,6.4,1.49,10.34,5.69,10.34a20.32,20.32,0,0,0,6.59-1.55"/><polygon class="cls-1" points="407.11 87.78 407.11 43.07 414.61 43.07 414.61 80.67 431.21 80.67 431.21 87.78 407.11 87.78"/><path class="cls-1" d="M462.41,79c.19,2.27,1.09,2.85,3,3.3l-.45,6.2c-4.59,0-6.79-.84-8.72-2.26a24,24,0,0,1-9.44,2.26c-5.62,0-9.88-4.07-9.88-10.33,0-6.66,4.2-9.37,10.59-9.83l7.56-.64V65.62c0-2.71-1.29-4.07-3.75-4.07-5.81,0-12.53.65-12.53.65l-.26-6.08a111.53,111.53,0,0,1,13.18-1.35c6.92,0,10.73,3,10.73,10.92Zm-14.09-5.42c-2.71.13-4,1.94-4,4.39s1.35,4.33,3.49,4.33A26.53,26.53,0,0,0,455,81V73.18Z"/><path class="cls-1" d="M500,71.24c0,12-4.52,17.25-15.51,17.25-3.36,0-11.63-.77-11.63-.77V42.17h7.37V56.45a23,23,0,0,1,7.43-1.68c8.27,0,12.34,5.81,12.34,16.47m-7.5,0c0-6.2-1.94-9.82-5.81-9.82a23.19,23.19,0,0,0-6.46,1V81.77s3,.26,4.2.26c6.65,0,8.07-4.59,8.07-10.79"/></svg>